PathFileType	4	(X/Y/Z)	D:\telocate\uwb05-Unnamed.trc
DataRate	CameraRate	NumFrames	NumMarkers	Units	OrigDataRate	OrigDataStartFrame	OrigNumFrames
100.00	100.00	      220	0	mm	100.00	7206	      8235
Frame#	Time	
		

7206	72.050				877.48120	-2309.78711	1188.29126	
7207	72.060				894.38489	-2307.07495	1191.45581	
7208	72.070				907.19055	-2307.36279	1192.29321	
7209	72.080				919.11475	-2306.71680	1192.70044	
7210	72.090				932.26617	-2306.35938	1192.94971	
7211	72.100				943.64996	-2306.34058	1193.16113	
7212	72.110				955.98596	-2306.22607	1193.44543	
7213	72.120				967.17456	-2306.28345	1192.43494	
7214	72.130				979.64679	-2305.81274	1192.75122	
7215	72.140				992.67627	-2305.79761	1192.67590	
7216	72.150				1002.07825	-2306.59668	1191.68738	
7217	72.160				1017.43921	-2304.85229	1192.55042	
7218	72.170				1029.20386	-2304.95215	1192.81848	
7219	72.180				1040.98999	-2303.90845	1192.12073	
7220	72.190				1051.94458	-2304.13135	1191.80750	
7221	72.200				1064.58704	-2302.67456	1192.09839	
7222	72.210				1073.57019	-2303.80493	1191.36877	
7223	72.220				1088.71558	-2301.48291	1191.90747	
7224	72.230				1100.14587	-2300.89673	1191.83850	
7225	72.240				1111.36938	-2300.15308	1191.12817	
7226	72.250				1123.15405	-2299.34863	1190.72107	
7227	72.260				1137.68616	-2296.97534	1193.02905	
7228	72.270				1149.40027	-2296.09912	1192.54810	
7229	72.280				1160.70117	-2295.04565	1191.65662	
7230	72.290				1172.28650	-2294.25415	1191.26013	
7231	72.300				1184.19800	-2292.64429	1189.50317	
7232	72.310				1195.47253	-2291.43481	1188.61584	
7233	72.320				1208.69922	-2290.53198	1188.55188	
7234	72.330				1220.37341	-2289.37256	1187.13159	
7235	72.340				1232.69775	-2288.26489	1186.06348	
7236	72.350				1245.16711	-2287.00903	1185.35059	
7237	72.360				1258.07471	-2285.73462	1184.20459	
7238	72.370				1268.84351	-2285.18628	1182.15894	
7239	72.380				1283.30298	-2283.74023	1182.46484	
7240	72.390				1295.64734	-2282.81885	1181.85193	
7241	72.400				1307.68201	-2281.60156	1180.79517	
7242	72.410				1317.63708	-2281.08276	1179.41602	
7243	72.420				1332.26550	-2279.29907	1179.48157	
7244	72.430				1340.90125	-2279.09131	1178.18420	
7245	72.440				1354.72742	-2277.30981	1178.07434	
7246	72.450				1365.88110	-2276.79785	1178.03320	
7247	72.460				1377.36206	-2275.51733	1178.01099	
7248	72.470				1388.29382	-2274.68433	1178.06653	
7249	72.480				1399.73267	-2273.92017	1178.10315	
7250	72.490				1410.00562	-2273.44287	1177.75342	
7251	72.500				1423.30396	-2271.66504	1179.07617	
7252	72.510				1428.93689	-2273.73730	1176.94116	
7253	72.520				1439.29602	-2273.35547	1177.67542	
7254	72.530				1452.80920	-2270.70435	1179.12280	
7255	72.540				1460.41040	-2271.50269	1177.99524	
7256	72.550				1472.91296	-2269.52417	1180.01147	
7257	72.560				1480.59436	-2270.19214	1179.80115	
7258	72.570				1492.03845	-2269.16284	1181.13293	
7259	72.580				1501.99780	-2268.05029	1181.96667	
7260	72.590				1508.77185	-2268.99658	1181.79675	
7261	72.600				1522.04883	-2266.90991	1184.08508	
7262	72.610				1528.77332	-2267.72778	1183.11865	
7263	72.620				1541.38367	-2265.04565	1184.57019	
7264	72.630				1549.80322	-2265.23315	1185.19324	
7265	72.640				1559.52856	-2264.47510	1186.25085	
7266	72.650				1568.72473	-2263.94873	1186.95581	
7267	72.660				1574.77771	-2265.22852	1187.08093	
7268	72.670				1586.79846	-2263.82764	1188.70972	
7269	72.680				1596.97217	-2263.31787	1189.34875	
7270	72.690				1603.93811	-2263.21216	1188.43542	
7271	72.700				1616.76599	-2261.87988	1190.73999	
7272	72.710				1623.42615	-2262.60962	1190.28162	
7273	72.720				1634.94031	-2261.66772	1191.59705	
7274	72.730				1642.46472	-2262.61743	1191.29395	
7275	72.740				1655.34924	-2260.48462	1192.47412	
7276	72.750				1665.04883	-2260.05933	1192.90771	
7277	72.760				1674.03003	-2260.06128	1192.72449	
7278	72.770				1687.42102	-2257.90454	1192.92542	
7279	72.780				1694.48071	-2259.47070	1191.41797	
7280	72.790				1705.27051	-2258.83643	1190.73352	
7281	72.800				1717.27576	-2259.01318	1190.35474	
7282	72.810				1728.38892	-2258.26221	1189.88293	
7283	72.820				1743.56665	-2256.35767	1190.38525	
7284	72.830				1758.43860	-2254.46704	1189.92554	
7285	72.840				1767.15137	-2256.23145	1187.82349	
7286	72.850				1778.69897	-2256.51953	1187.33594	
7287	72.860				1792.50903	-2255.48828	1187.26782	
7288	72.870				1805.49719	-2255.19702	1185.52515	
7289	72.880				1820.16077	-2253.69336	1185.64600	
7290	72.890				1834.64856	-2252.57471	1185.87305	
7291	72.900				1843.84058	-2254.65649	1183.46094	
7292	72.910				1857.59888	-2253.68652	1182.85510	
7293	72.920				1870.78186	-2253.78687	1180.89868	
7294	72.930				1886.32593	-2252.40381	1180.18286	
7295	72.940				1904.29443	-2250.12793	1180.39038	
7296	72.950				1912.50452	-2252.62451	1176.58679	
7297	72.960				1926.75330	-2252.83154	1175.70654	
7298	72.970				1941.14111	-2252.24194	1174.80029	
7299	72.980				1955.21716	-2251.87500	1173.91406	
7300	72.990				1974.60791	-2249.28418	1174.03503	
7301	73.000				1982.73413	-2251.30493	1171.74841	
7302	73.010				1996.22852	-2252.63403	1170.23523	
7303	73.020				2010.10071	-2251.77734	1169.30054	
7304	73.030				2022.18970	-2251.90942	1168.31348	
7305	73.040				2037.06433	-2250.29443	1169.18872	
7306	73.050				2051.09131	-2248.51758	1170.38269	
7307	73.060				2058.70166	-2250.80811	1167.94043	
7308	73.070				2070.42725	-2250.76123	1169.19775	
7309	73.080				2082.31616	-2250.06665	1169.32434	
7310	73.090				2093.86035	-2249.30371	1169.73132	
7311	73.100				2107.51563	-2247.25635	1171.76379	
7312	73.110				2121.01489	-2245.35132	1172.98877	
7313	73.120				2128.51294	-2246.26123	1172.26367	
7314	73.130				2140.06079	-2246.38672	1173.24414	
7315	73.140				2150.71362	-2245.68652	1173.21460	
7316	73.150				2163.06934	-2243.96631	1174.29529	
7317	73.160				2174.78223	-2242.60010	1174.95105	
7318	73.170				2191.09961	-2238.62891	1178.02747	
7319	73.180				2197.37866	-2239.89551	1175.90198	
7320	73.190				2208.44141	-2239.01636	1177.62390	
7321	73.200				2219.23242	-2237.51392	1177.90759	
7322	73.210				2231.17188	-2235.00562	1179.65027	
7323	73.220				2241.41309	-2233.52295	1179.83521	
7324	73.230				2259.18359	-2227.86255	1184.09094	
7325	73.240				2266.04712	-2228.22607	1183.05286	
7326	73.250				2276.84082	-2226.56665	1183.90259	
7327	73.260				2287.80713	-2223.78247	1184.02954	
7328	73.270				2300.38892	-2220.65698	1184.65332	
7329	73.280				2313.11084	-2217.51587	1184.76978	
7330	73.290				2327.92261	-2212.96069	1186.08008	
7331	73.300				2334.78711	-2211.20361	1184.59912	
7332	73.310				2347.99194	-2209.53516	1184.27747	
7333	73.320				2361.60913	-2205.56543	1184.22717	
7334	73.330				2375.11475	-2201.96802	1183.96851	
7335	73.340				2392.64063	-2195.07349	1186.10803	
7336	73.350				2400.11377	-2193.87988	1183.15869	
7337	73.360				2412.04419	-2191.81421	1181.97998	
7338	73.370				2424.12695	-2187.48096	1182.40369	
7339	73.380				2439.42334	-2182.67139	1180.91711	
7340	73.390				2455.79517	-2176.25562	1181.53467	
7341	73.400				2466.51587	-2173.37158	1179.52832	
7342	73.410				2477.71631	-2170.34619	1178.35706	
7343	73.420				2490.26465	-2166.31934	1177.75818	
7344	73.430				2503.98364	-2160.46924	1176.54517	
7345	73.440				2520.12256	-2154.29980	1178.10913	
7346	73.450				2531.05029	-2150.44873	1176.56763	
7347	73.460				2541.07813	-2146.84570	1174.54565	
7348	73.470				2553.18140	-2142.44678	1174.49622	
7349	73.480				2566.19751	-2136.23071	1174.44470	
7350	73.490				2578.68750	-2130.98755	1175.01184	
7351	73.500				2592.20239	-2124.74292	1175.09875	
7352	73.510				2599.45581	-2122.48755	1173.18799	
7353	73.520				2610.27832	-2118.20630	1173.65906	
7354	73.530				2621.26587	-2112.76123	1173.07971	
7355	73.540				2633.33472	-2106.64331	1173.70947	
7356	73.550				2646.95337	-2100.53247	1175.68262	
7357	73.560				2656.96899	-2095.91846	1175.65247	
7358	73.570				2663.47925	-2092.96582	1173.47168	
7359	73.580				2673.72656	-2087.41626	1175.05066	
7360	73.590				2683.21387	-2082.94238	1174.99292	
7361	73.600				2694.41821	-2077.41943	1176.60107	
7362	73.610				2708.43677	-2069.98364	1179.61584	
7363	73.620				2717.95923	-2065.39502	1180.09888	
7364	73.630				2724.29858	-2062.12012	1178.61218	
7365	73.640				2733.74902	-2057.11694	1178.24438	
7366	73.650				2743.12744	-2052.30469	1178.85522	
7367	73.660				2754.68530	-2045.80554	1180.47168	
7368	73.670				2766.31714	-2039.33008	1182.58459	
7369	73.680				2776.11768	-2034.22424	1183.84705	
7370	73.690				2781.38208	-2032.12292	1181.48071	
7371	73.700				2791.36401	-2027.69812	1181.54382	
7372	73.710				2801.64453	-2021.83093	1180.72131	
7373	73.720				2814.74072	-2014.12769	1181.80847	
7374	73.730				2828.71240	-2006.03955	1183.92114	
7375	73.740				2838.81104	-2001.04810	1183.40674	
7376	73.750				2847.71436	-1997.36633	1182.25769	
7377	73.760				2861.39136	-1988.90027	1183.91687	
7378	73.770				2868.84180	-1984.56567	1181.28284	
7379	73.780				2878.90088	-1978.89441	1181.24353	
7380	73.790				2894.85889	-1968.80908	1184.89197	
7381	73.800				2900.99487	-1965.73340	1181.73584	
7382	73.810				2910.26440	-1960.11438	1179.82605	
7383	73.820				2920.57544	-1954.13062	1180.14001	
7384	73.830				2933.03564	-1945.58899	1180.24792	
7385	73.840				2947.37476	-1936.20581	1182.87939	
7386	73.850				2957.47046	-1929.37500	1180.88025	
7387	73.860				2967.69189	-1923.08618	1179.58691	
7388	73.870				2982.55957	-1912.34167	1179.29163	
7389	73.880				2993.40942	-1904.80005	1176.86755	
7390	73.890				3008.44897	-1895.44434	1177.06055	
7391	73.900				3017.06152	-1888.61670	1173.43982	
7392	73.910				3027.84741	-1881.40173	1172.71606	
7393	73.920				3039.86572	-1872.90784	1171.05798	
7394	73.930				3052.63184	-1863.69177	1169.18933	
7395	73.940				3068.25708	-1852.37622	1169.61536	
7396	73.950				3077.49780	-1845.11340	1165.17542	
7397	73.960				3092.91357	-1834.34888	1165.57031	
7398	73.970				3102.97192	-1826.51257	1161.63013	
7399	73.980				3117.95313	-1816.27026	1161.36682	
7400	73.990				3128.48389	-1807.68274	1158.10437	
7401	74.000				3139.36890	-1799.66345	1155.80383	
7402	74.010				3151.85815	-1790.21436	1153.13245	
7403	74.020				3165.15503	-1780.53894	1151.41028	
7404	74.030				3180.32129	-1769.31445	1150.77295	
7405	74.040				3189.42090	-1762.25427	1146.32336	
7406	74.050				3204.63403	-1751.37939	1147.27295	
7407	74.060				3214.93164	-1743.10510	1144.02661	
7408	74.070				3229.73267	-1732.19348	1143.03918	
7409	74.080				3238.88354	-1723.63733	1139.64856	
7410	74.090				3249.93530	-1715.60522	1136.85632	
7411	74.100				3261.26685	-1707.31836	1135.14429	
7412	74.110				3273.32202	-1697.11584	1134.41321	
7413	74.120				3287.07397	-1686.59021	1135.15625	
7414	74.130				3294.58813	-1680.05457	1132.95410	
7415	74.140				3303.76367	-1671.46777	1131.87488	
7416	74.150				3314.01782	-1662.34204	1132.25134	
7417	74.160				3324.89014	-1652.66711	1132.64246	
7418	74.170				3337.21655	-1641.62830	1133.99548	
7419	74.180				3343.87329	-1633.99805	1132.90076	
7420	74.190				3351.54492	-1626.94031	1130.93506	
7421	74.200				3360.18042	-1618.68799	1130.20178	
7422	74.210				3372.04761	-1605.74121	1132.72156	
7423	74.220				3384.03589	-1594.26233	1134.95129	
7424	74.230				3390.41504	-1586.71448	1132.99048	
7425	74.240				3397.96362	-1577.27808	1132.42932	
